ffmpeg started on 2025-06-27 at 10:02:43
Report written to "D:\Convert\FFMetrics\reports\psnr_report-6.txt"
Log level: 32
Command line:
ffmpeg -hide_banner -nostdin -i "G:\\\xc0\xed\xe8\xec\xe5\\[\xd2\xee\xef-4]\\\xd2\xee\xea\xe8\xe9\xf1\xea\xe8\xe9 \xc3\xf3\xeb\xfc\\\xd2\xc2-4\\Tokyo_Ghoul_Re_[01]_[AniLibria_TV]_[HDTVRip_720p]_HEVC.mkv" -i "G:\\\xc0\xed\xe8\xec\xe5\\[\xd2\xee\xef-4]\\\xd2\xee\xea\xe8\xe9\xf1\xea\xe8\xe9 \xc3\xf3\xeb\xfc\\\xd2\xc2-4\\Tokyo_Ghoul_Re_[01]_[AniLibria_TV]_[HDTVRip_720p].mkv" -lavfi "[0:v]settb=AVTB,setpts=PTS-STARTPTS,format=pix_fmts=yuv420p10,fps=24000/1001,scale=1280:720:flags=bicubic[main];[1:v]settb=AVTB,setpts=PTS-STARTPTS,format=pix_fmts=yuv420p,fps=24000/1001,scale=1280:720:flags=bicubic[ref];[main][ref]psnr=eof_action=endall:stats_file='D\\:/Convert/FFMetrics/logs/psnr_logfile-6.txt'" -f null -
Input #0, matroska,webm, from 'G:\Аниме\[Топ-4]\Токийский Гуль\ТВ-4\Tokyo_Ghoul_Re_[01]_[AniLibria_TV]_[HDTVRip_720p]_HEVC.mkv':
  Metadata:
    ENCODER         : Lavf61.7.100
  Duration: 00:24:29.93, start: -0.021000, bitrate: 769 kb/s
  Stream #0:0(jpn): Video: hevc (Main 10), yuv420p10le(tv, bt709, progressive), 1280x720 [SAR 1:1 DAR 16:9], 23.98 fps, 23.98 tbr, 1k tbn (default)
      Metadata:
        ENCODER         : Lavc61.19.100 libx265
        BPS             : 570856
        DURATION        : 00:24:29.926708333
        NUMBER_OF_FRAMES: 35243
        NUMBER_OF_BYTES : 104889620
        _STATISTICS_WRITING_APP: mkvpropedit v66.0.0 ('Josie') 64-bit
        _STATISTICS_WRITING_DATE_UTC: 2025-06-26 13:07:05
        _STATISTICS_TAGS: BPS DURATION NUMBER_OF_FRAMES NUMBER_OF_BYTES
  Stream #0:1(rus): Audio: aac (LC), 48000 Hz, stereo, fltp (default) (forced)
      Metadata:
        title           : Lupin, Silv, December & MyAska
        ENCODER         : Lavc61.19.100 aac
        BPS             : 194466
        DURATION        : 00:24:29.887000000
        NUMBER_OF_FRAMES: 68902
        NUMBER_OF_BYTES : 35730539
        _STATISTICS_WRITING_APP: mkvpropedit v66.0.0 ('Josie') 64-bit
        _STATISTICS_WRITING_DATE_UTC: 2025-06-26 13:07:05
        _STATISTICS_TAGS: BPS DURATION NUMBER_OF_FRAMES NUMBER_OF_BYTES
  Stream #0:2(rus): Subtitle: ass (ssa) (default) (forced)
      Metadata:
        title           : Надписи
        BPS             : 47
        DURATION        : 00:23:21.870000000
        NUMBER_OF_FRAMES: 54
        NUMBER_OF_BYTES : 8318
        _STATISTICS_WRITING_APP: mkvpropedit v66.0.0 ('Josie') 64-bit
        _STATISTICS_WRITING_DATE_UTC: 2025-06-26 13:07:05
        _STATISTICS_TAGS: BPS DURATION NUMBER_OF_FRAMES NUMBER_OF_BYTES
  Stream #0:3(rus): Subtitle: ass (ssa)
      Metadata:
        title           : Субтитры
        BPS             : 198
        DURATION        : 00:24:11.920000000
        NUMBER_OF_FRAMES: 397
        NUMBER_OF_BYTES : 36012
        _STATISTICS_WRITING_APP: mkvpropedit v66.0.0 ('Josie') 64-bit
        _STATISTICS_WRITING_DATE_UTC: 2025-06-26 13:07:05
        _STATISTICS_TAGS: BPS DURATION NUMBER_OF_FRAMES NUMBER_OF_BYTES
Input #1, matroska,webm, from 'G:\Аниме\[Топ-4]\Токийский Гуль\ТВ-4\Tokyo_Ghoul_Re_[01]_[AniLibria_TV]_[HDTVRip_720p].mkv':
  Metadata:
    encoder         : libebml v1.4.2 + libmatroska v1.6.4
    creation_time   : 2024-12-27T09:43:50.000000Z
  Duration: 00:24:29.93, start: 0.000000, bitrate: 2275 kb/s
  Stream #1:0(jpn): Video: h264 (Main), yuv420p(tv, bt709, progressive), 1280x720, SAR 1:1 DAR 16:9, 23.98 fps, 23.98 tbr, 1k tbn (default)
      Metadata:
        BPS             : 2076763
        DURATION        : 00:24:29.927000000
        NUMBER_OF_FRAMES: 35243
        NUMBER_OF_BYTES : 381586396
        _STATISTICS_WRITING_APP: mkvmerge v66.0.0 ('Josie') 64-bit
        _STATISTICS_WRITING_DATE_UTC: 2024-12-27 09:43:50
        _STATISTICS_TAGS: BPS DURATION NUMBER_OF_FRAMES NUMBER_OF_BYTES
  Stream #1:1(rus): Audio: aac (LC), 48000 Hz, stereo, fltp (default) (forced)
      Metadata:
        title           : Lupin, Silv, December & MyAska
        BPS             : 192093
        DURATION        : 00:24:29.887000000
        NUMBER_OF_FRAMES: 68901
        NUMBER_OF_BYTES : 35294442
        _STATISTICS_WRITING_APP: mkvmerge v66.0.0 ('Josie') 64-bit
        _STATISTICS_WRITING_DATE_UTC: 2024-12-27 09:43:50
        _STATISTICS_TAGS: BPS DURATION NUMBER_OF_FRAMES NUMBER_OF_BYTES
  Stream #1:2(rus): Subtitle: ass (ssa) (default) (forced)
      Metadata:
        title           : Надписи
        BPS             : 47
        DURATION        : 00:23:21.870000000
        NUMBER_OF_FRAMES: 54
        NUMBER_OF_BYTES : 8318
        _STATISTICS_WRITING_APP: mkvmerge v66.0.0 ('Josie') 64-bit
        _STATISTICS_WRITING_DATE_UTC: 2024-12-27 09:43:50
        _STATISTICS_TAGS: BPS DURATION NUMBER_OF_FRAMES NUMBER_OF_BYTES
  Stream #1:3(rus): Subtitle: ass (ssa)
      Metadata:
        title           : Субтитры
        BPS             : 198
        DURATION        : 00:24:11.920000000
        NUMBER_OF_FRAMES: 397
        NUMBER_OF_BYTES : 36012
        _STATISTICS_WRITING_APP: mkvmerge v66.0.0 ('Josie') 64-bit
        _STATISTICS_WRITING_DATE_UTC: 2024-12-27 09:43:50
        _STATISTICS_TAGS: BPS DURATION NUMBER_OF_FRAMES NUMBER_OF_BYTES
  Stream #1:4: Attachment: ttf
      Metadata:
        filename        : TEMPSITC.TTF
        mimetype        : application/x-truetype-font
  Stream #1:5: Attachment: otf
      Metadata:
        filename        : TrajanPro3-Bold.otf
        mimetype        : application/vnd.ms-opentype
  Stream #1:6: Attachment: otf
      Metadata:
        filename        : TrajanPro3-Regular.otf
        mimetype        : application/vnd.ms-opentype
  Stream #1:7: Attachment: ttf
      Metadata:
        filename        : XENI.TTF
        mimetype        : application/x-truetype-font
  Stream #1:8: Attachment: ttf
      Metadata:
        filename        : OpenSanA.ttf
        mimetype        : application/x-truetype-font
  Stream #1:9: Attachment: ttf
      Metadata:
        filename        : REDOCTOB.otf
        mimetype        : application/x-truetype-font
  Stream #1:10: Attachment: ttf
      Metadata:
        filename        : Snowstorm.ttf
        mimetype        : application/x-truetype-font
Stream mapping:
  Stream #0:0 (hevc) -> settb:default
  Stream #1:0 (h264) -> settb:default
  psnr:default -> Stream #0:0 (wrapped_avframe)
  Stream #0:1 -> #0:1 (aac (native) -> pcm_s16le (native))
Output #0, null, to 'pipe:':
  Metadata:
    encoder         : Lavf61.7.100
  Stream #0:0: Video: wrapped_avframe, yuv420p10le(tv, bt709, progressive), 1280x720 [SAR 1:1 DAR 16:9], q=2-31, 200 kb/s, 23.98 fps, 23.98 tbn
      Metadata:
        encoder         : Lavc61.19.100 wrapped_avframe
  Stream #0:1(rus): Audio: pcm_s16le, 48000 Hz, stereo, s16, 1536 kb/s (default) (forced)
      Metadata:
        title           : Lupin, Silv, December & MyAska
        _STATISTICS_TAGS: BPS DURATION NUMBER_OF_FRAMES NUMBER_OF_BYTES
        BPS             : 194466
        DURATION        : 00:24:29.887000000
        NUMBER_OF_FRAMES: 68902
        NUMBER_OF_BYTES : 35730539
        _STATISTICS_WRITING_APP: mkvpropedit v66.0.0 ('Josie') 64-bit
        _STATISTICS_WRITING_DATE_UTC: 2025-06-26 13:07:05
        encoder         : Lavc61.19.100 pcm_s16le
frame=  475 fps=0.0 q=-0.0 size=N/A time=00:00:19.81 bitrate=N/A speed=38.3x    frame=  890 fps=868 q=-0.0 size=N/A time=00:00:37.12 bitrate=N/A speed=36.2x    frame= 1235 fps=795 q=-0.0 size=N/A time=00:00:51.50 bitrate=N/A speed=33.2x    frame= 1319 fps=639 q=-0.0 size=N/A time=00:00:55.01 bitrate=N/A speed=26.7x    frame= 1323 fps=515 q=-0.0 size=N/A time=00:00:55.18 bitrate=N/A speed=21.5x    frame= 1332 fps=431 q=-0.0 size=N/A time=00:00:55.55 bitrate=N/A speed=  18x    frame= 1351 fps=374 q=-0.0 size=N/A time=00:00:56.34 bitrate=N/A speed=15.6x    frame= 1360 fps=329 q=-0.0 size=N/A time=00:00:56.72 bitrate=N/A speed=13.7x    frame= 1372 fps=295 q=-0.0 size=N/A time=00:00:57.22 bitrate=N/A speed=12.3x    frame= 1389 fps=268 q=-0.0 size=N/A time=00:00:57.93 bitrate=N/A speed=11.2x    frame= 1411 fps=248 q=-0.0 size=N/A time=00:00:58.85 bitrate=N/A speed=10.4x    frame= 1411 fps=227 q=-0.0 size=N/A time=00:00:58.85 bitrate=N/A speed=9.48x    frame= 1433 fps=213 q=-0.0 size=N/A time=00:00:59.76 bitrate=N/A speed= 8.9x    frame= 1435 fps=198 q=-0.0 size=N/A time=00:00:59.85 bitrate=N/A speed=8.27x    frame= 1438 fps=186 q=-0.0 size=N/A time=00:00:59.97 bitrate=N/A speed=7.74x    frame= 1438 fps=174 q=-0.0 size=N/A time=00:00:59.97 bitrate=N/A speed=7.26x    frame= 1443 fps=164 q=-0.0 size=N/A time=00:01:00.18 bitrate=N/A speed=6.85x    frame= 1448 fps=156 q=-0.0 size=N/A time=00:01:00.39 bitrate=N/A speed= 6.5x    frame= 1450 fps=148 q=-0.0 size=N/A time=00:01:00.47 bitrate=N/A speed=6.16x    frame= 1453 fps=141 q=-0.0 size=N/A time=00:01:00.60 bitrate=N/A speed=5.87x    frame= 1463 fps=135 q=-0.0 size=N/A time=00:01:01.01 bitrate=N/A speed=5.63x    frame= 1527 fps=134 q=-0.0 size=N/A time=00:01:03.68 bitrate=N/A speed= 5.6x    frame= 1557 fps=131 q=-0.0 size=N/A time=00:01:04.93 bitrate=N/A speed=5.47x    frame= 1562 fps=126 q=-0.0 size=N/A time=00:01:05.14 bitrate=N/A speed=5.26x    frame= 1567 fps=121 q=-0.0 size=N/A time=00:01:05.35 bitrate=N/A speed=5.06x    frame= 1572 fps=117 q=-0.0 size=N/A time=00:01:05.56 bitrate=N/A speed=4.88x    frame= 1576 fps=113 q=-0.0 size=N/A time=00:01:05.73 bitrate=N/A speed=4.71x    frame= 1600 fps=111 q=-0.0 size=N/A time=00:01:06.73 bitrate=N/A speed=4.62x    frame= 1611 fps=108 q=-0.0 size=N/A time=00:01:07.19 bitrate=N/A speed=4.49x    frame= 1611 fps=104 q=-0.0 size=N/A time=00:01:07.19 bitrate=N/A speed=4.34x    frame= 1625 fps=102 q=-0.0 size=N/A time=00:01:07.77 bitrate=N/A speed=4.23x    frame= 1637 fps= 99 q=-0.0 size=N/A time=00:01:08.27 bitrate=N/A speed=4.13x    frame= 1646 fps= 97 q=-0.0 size=N/A time=00:01:08.65 bitrate=N/A speed=4.03x    frame= 1648 fps= 94 q=-0.0 size=N/A time=00:01:08.73 bitrate=N/A speed=3.92x    frame= 1662 fps= 92 q=-0.0 size=N/A time=00:01:09.31 bitrate=N/A speed=3.84x    frame= 1671 fps= 90 q=-0.0 size=N/A time=00:01:09.69 bitrate=N/A speed=3.75x    frame= 1671 fps= 87 q=-0.0 size=N/A time=00:01:09.69 bitrate=N/A speed=3.65x    frame= 1671 fps= 85 q=-0.0 size=N/A time=00:01:09.69 bitrate=N/A speed=3.55x    frame= 1677 fps= 83 q=-0.0 size=N/A time=00:01:09.94 bitrate=N/A speed=3.47x    frame= 1701 fps= 82 q=-0.0 size=N/A time=00:01:10.94 bitrate=N/A speed=3.43x    frame= 1703 fps= 80 q=-0.0 size=N/A time=00:01:11.02 bitrate=N/A speed=3.36x    frame= 1724 fps= 79 q=-0.0 size=N/A time=00:01:11.90 bitrate=N/A speed=3.31x    frame= 1724 fps= 78 q=-0.0 size=N/A time=00:01:11.90 bitrate=N/A speed=3.24x    frame= 1731 fps= 76 q=-0.0 size=N/A time=00:01:12.19 bitrate=N/A speed=3.18x    frame= 1756 fps= 76 q=-0.0 size=N/A time=00:01:13.23 bitrate=N/A speed=3.15x    frame= 1759 fps= 74 q=-0.0 size=N/A time=00:01:13.36 bitrate=N/A speed=3.09x    frame= 1759 fps= 73 q=-0.0 size=N/A time=00:01:13.36 bitrate=N/A speed=3.02x    frame= 1777 fps= 72 q=-0.0 size=N/A time=00:01:14.11 bitrate=N/A speed=2.99x    frame= 1777 fps= 70 q=-0.0 size=N/A time=00:01:14.11 bitrate=N/A speed=2.93x    frame= 1790 fps= 69 q=-0.0 size=N/A time=00:01:14.65 bitrate=N/A speed=2.89x    frame= 1790 fps= 68 q=-0.0 size=N/A time=00:01:14.65 bitrate=N/A speed=2.84x    frame= 1799 fps= 67 q=-0.0 size=N/A time=00:01:15.03 bitrate=N/A speed= 2.8x    frame= 1805 fps= 66 q=-0.0 size=N/A time=00:01:15.28 bitrate=N/A speed=2.75x    frame= 1816 fps= 65 q=-0.0 size=N/A time=00:01:15.74 bitrate=N/A speed=2.72x    frame= 1816 fps= 64 q=-0.0 size=N/A time=00:01:15.74 bitrate=N/A speed=2.67x    frame= 1834 fps= 63 q=-0.0 size=N/A time=00:01:16.49 bitrate=N/A speed=2.65x    frame= 1870 fps= 64 q=-0.0 size=N/A time=00:01:17.99 bitrate=N/A speed=2.65x    frame= 1890 fps= 63 q=-0.0 size=N/A time=00:01:18.82 bitrate=N/A speed=2.63x    frame= 1905 fps= 63 q=-0.0 size=N/A time=00:01:19.45 bitrate=N/A speed=2.61x    frame= 1916 fps= 62 q=-0.0 size=N/A time=00:01:19.91 bitrate=N/A speed=2.58x    frame= 1940 fps= 62 q=-0.0 size=N/A time=00:01:20.91 bitrate=N/A speed=2.57x    frame= 1945 fps= 61 q=-0.0 size=N/A time=00:01:21.12 bitrate=N/A speed=2.54x    frame= 1954 fps= 60 q=-0.0 size=N/A time=00:01:21.49 bitrate=N/A speed=2.51x    frame= 1963 fps= 59 q=-0.0 size=N/A time=00:01:21.87 bitrate=N/A speed=2.48x    frame= 1984 fps= 59 q=-0.0 size=N/A time=00:01:22.74 bitrate=N/A speed=2.47x    frame= 1997 fps= 59 q=-0.0 size=N/A time=00:01:23.29 bitrate=N/A speed=2.45x    frame= 2010 fps= 58 q=-0.0 size=N/A time=00:01:23.83 bitrate=N/A speed=2.42x    frame= 2026 fps= 58 q=-0.0 size=N/A time=00:01:24.50 bitrate=N/A speed=2.41x    frame= 2074 fps= 58 q=-0.0 size=N/A time=00:01:26.50 bitrate=N/A speed=2.43x    frame= 2093 fps= 58 q=-0.0 size=N/A time=00:01:27.29 bitrate=N/A speed=2.42x    frame= 2101 fps= 57 q=-0.0 size=N/A time=00:01:27.62 bitrate=N/A speed=2.39x    frame= 2110 fps= 57 q=-0.0 size=N/A time=00:01:28.00 bitrate=N/A speed=2.37x    frame= 2125 fps= 56 q=-0.0 size=N/A time=00:01:28.63 bitrate=N/A speed=2.35x    frame= 2125 fps= 56 q=-0.0 size=N/A time=00:01:28.63 bitrate=N/A speed=2.32x    frame= 2141 fps= 55 q=-0.0 size=N/A time=00:01:29.29 bitrate=N/A speed=2.31x    frame= 2148 fps= 55 q=-0.0 size=N/A time=00:01:29.58 bitrate=N/A speed=2.28x    frame= 2150 fps= 54 q=-0.0 size=N/A time=00:01:29.67 bitrate=N/A speed=2.26x    frame= 2154 fps= 54 q=-0.0 size=N/A time=00:01:29.83 bitrate=N/A speed=2.23x    frame= 2156 fps= 53 q=-0.0 size=N/A time=00:01:29.92 bitrate=N/A speed=2.21x    frame= 2161 fps= 52 q=-0.0 size=N/A time=00:01:30.13 bitrate=N/A speed=2.18x    frame= 2163 fps= 52 q=-0.0 size=N/A time=00:01:30.21 bitrate=N/A speed=2.16x    frame= 2163 fps= 51 q=-0.0 size=N/A time=00:01:30.21 bitrate=N/A speed=2.13x    frame= 2164 fps= 51 q=-0.0 size=N/A time=00:01:30.25 bitrate=N/A speed=2.11x    frame= 2172 fps= 50 q=-0.0 size=N/A time=00:01:30.59 bitrate=N/A speed=2.09x    frame= 2185 fps= 50 q=-0.0 size=N/A time=00:01:31.13 bitrate=N/A speed=2.08x    frame= 2185 fps= 49 q=-0.0 size=N/A time=00:01:31.13 bitrate=N/A speed=2.05x    frame= 2187 fps= 49 q=-0.0 size=N/A time=00:01:31.21 bitrate=N/A speed=2.03x    frame= 2197 fps= 48 q=-0.0 size=N/A time=00:01:31.63 bitrate=N/A speed=2.02x    frame= 2204 fps= 48 q=-0.0 size=N/A time=00:01:31.92 bitrate=N/A speed=   2x    frame= 2213 fps= 48 q=-0.0 size=N/A time=00:01:32.30 bitrate=N/A speed=1.99x    frame= 2215 fps= 47 q=-0.0 size=N/A time=00:01:32.38 bitrate=N/A speed=1.97x    frame= 2222 fps= 47 q=-0.0 size=N/A time=00:01:32.67 bitrate=N/A speed=1.95x    frame= 2234 fps= 47 q=-0.0 size=N/A time=00:01:33.17 bitrate=N/A speed=1.94x    frame= 2238 fps= 46 q=-0.0 size=N/A time=00:01:33.34 bitrate=N/A speed=1.92x    frame= 2244 fps= 46 q=-0.0 size=N/A time=00:01:33.59 bitrate=N/A speed=1.91x    frame= 2254 fps= 46 q=-0.0 size=N/A time=00:01:34.01 bitrate=N/A speed= 1.9x    frame= 2256 fps= 45 q=-0.0 size=N/A time=00:01:34.09 bitrate=N/A speed=1.88x    frame= 2265 fps= 45 q=-0.0 size=N/A time=00:01:34.46 bitrate=N/A speed=1.87x    frame= 2270 fps= 44 q=-0.0 size=N/A time=00:01:34.67 bitrate=N/A speed=1.85x    frame= 2272 fps= 44 q=-0.0 size=N/A time=00:01:34.76 bitrate=N/A speed=1.84x    frame= 2272 fps= 44 q=-0.0 size=N/A time=00:01:34.76 bitrate=N/A speed=1.82x    frame= 2276 fps= 43 q=-0.0 size=N/A time=00:01:34.92 bitrate=N/A speed= 1.8x    frame= 2299 fps= 43 q=-0.0 size=N/A time=00:01:35.88 bitrate=N/A speed= 1.8x    frame= 2302 fps= 43 q=-0.0 size=N/A time=00:01:36.01 bitrate=N/A speed=1.79x    frame= 2305 fps= 43 q=-0.0 size=N/A time=00:01:36.13 bitrate=N/A speed=1.77x    frame= 2338 fps= 43 q=-0.0 size=N/A time=00:01:37.51 bitrate=N/A speed=1.78x    frame= 2341 fps= 42 q=-0.0 size=N/A time=00:01:37.63 bitrate=N/A speed=1.77x    frame= 2345 fps= 42 q=-0.0 size=N/A time=00:01:37.80 bitrate=N/A speed=1.76x    frame= 2345 fps= 42 q=-0.0 size=N/A time=00:01:37.80 bitrate=N/A speed=1.74x    frame= 2406 fps= 42 q=-0.0 size=N/A time=00:01:40.35 bitrate=N/A speed=1.77x    frame= 2408 fps= 42 q=-0.0 size=N/A time=00:01:40.43 bitrate=N/A speed=1.75x    frame= 2417 fps= 42 q=-0.0 size=N/A time=00:01:40.80 bitrate=N/A speed=1.74x    frame= 2433 fps= 42 q=-0.0 size=N/A time=00:01:41.47 bitrate=N/A speed=1.74x    frame= 2448 fps= 42 q=-0.0 size=N/A time=00:01:42.10 bitrate=N/A speed=1.74x    frame= 2461 fps= 41 q=-0.0 size=N/A time=00:01:42.64 bitrate=N/A speed=1.73x    frame= 2461 fps= 41 q=-0.0 size=N/A time=00:01:42.64 bitrate=N/A speed=1.72x    frame= 2486 fps= 41 q=-0.0 size=N/A time=00:01:43.68 bitrate=N/A speed=1.72x    frame= 2507 fps= 41 q=-0.0 size=N/A time=00:01:44.56 bitrate=N/A speed=1.72x    frame= 2514 fps= 41 q=-0.0 size=N/A time=00:01:44.85 bitrate=N/A speed=1.71x    frame= 2518 fps= 41 q=-0.0 size=N/A time=00:01:45.02 bitrate=N/A speed= 1.7x    frame= 2522 fps= 40 q=-0.0 size=N/A time=00:01:45.18 bitrate=N/A speed=1.68x    frame= 2526 fps= 40 q=-0.0 size=N/A time=00:01:45.35 bitrate=N/A speed=1.67x    frame= 2531 fps= 40 q=-0.0 size=N/A time=00:01:45.56 bitrate=N/A speed=1.66x    frame= 2547 fps= 40 q=-0.0 size=N/A time=00:01:46.23 bitrate=N/A speed=1.66x    frame= 2551 fps= 40 q=-0.0 size=N/A time=00:01:46.39 bitrate=N/A speed=1.65x    frame= 2558 fps= 39 q=-0.0 size=N/A time=00:01:46.68 bitrate=N/A speed=1.64x    frame= 2558 fps= 39 q=-0.0 size=N/A time=00:01:46.68 bitrate=N/A speed=1.63x    frame= 2558 fps= 39 q=-0.0 size=N/A time=00:01:46.68 bitrate=N/A speed=1.62x    frame= 2573 fps= 39 q=-0.0 size=N/A time=00:01:47.31 bitrate=N/A speed=1.61x    frame= 2587 fps= 39 q=-0.0 size=N/A time=00:01:47.89 bitrate=N/A speed=1.61x    frame= 2847 fps= 42 q=-0.0 size=N/A time=00:01:58.74 bitrate=N/A speed=1.76x    frame= 3125 fps= 46 q=-0.0 size=N/A time=00:02:10.33 bitrate=N/A speed=1.91x    frame= 3387 fps= 49 q=-0.0 size=N/A time=00:02:21.26 bitrate=N/A speed=2.06x    frame= 3850 fps= 56 q=-0.0 size=N/A time=00:02:40.57 bitrate=N/A speed=2.32x    frame= 4255 fps= 61 q=-0.0 size=N/A time=00:02:57.46 bitrate=N/A speed=2.55x    frame= 4462 fps= 64 q=-0.0 size=N/A time=00:03:06.10 bitrate=N/A speed=2.65x    frame= 4879 fps= 69 q=-0.0 size=N/A time=00:03:23.49 bitrate=N/A speed=2.88x    frame= 4996 fps= 70 q=-0.0 size=N/A time=00:03:28.37 bitrate=N/A speed=2.93x    frame= 5380 fps= 75 q=-0.0 size=N/A time=00:03:44.39 bitrate=N/A speed=3.13x    frame= 5840 fps= 81 q=-0.0 size=N/A time=00:04:03.57 bitrate=N/A speed=3.37x    frame= 6089 fps= 84 q=-0.0 size=N/A time=00:04:13.96 bitrate=N/A speed=3.49x    frame= 6554 fps= 89 q=-0.0 size=N/A time=00:04:33.35 bitrate=N/A speed=3.73x    frame= 6898 fps= 94 q=-0.0 size=N/A time=00:04:47.70 bitrate=N/A speed= 3.9x    frame= 7193 fps= 97 q=-0.0 size=N/A time=00:05:00.00 bitrate=N/A speed=4.04x    frame= 7615 fps=102 q=-0.0 size=N/A time=00:05:17.60 bitrate=N/A speed=4.25x    frame= 7941 fps=105 q=-0.0 size=N/A time=00:05:31.20 bitrate=N/A speed= 4.4x    frame= 8372 fps=110 q=-0.0 size=N/A time=00:05:49.18 bitrate=N/A speed=4.61x    frame= 8886 fps=116 q=-0.0 size=N/A time=00:06:10.62 bitrate=N/A speed=4.86x    frame= 9348 fps=122 q=-0.0 size=N/A time=00:06:29.88 bitrate=N/A speed=5.07x    frame= 9880 fps=128 q=-0.0 size=N/A time=00:06:52.07 bitrate=N/A speed=5.33x    frame=10225 fps=131 q=-0.0 size=N/A time=00:07:06.46 bitrate=N/A speed=5.47x    frame=10789 fps=138 q=-0.0 size=N/A time=00:07:29.99 bitrate=N/A speed=5.74x    frame=11337 fps=144 q=-0.0 size=N/A time=00:07:52.84 bitrate=N/A speed=5.99x    frame=11704 fps=147 q=-0.0 size=N/A time=00:08:08.15 bitrate=N/A speed=6.15x    frame=11927 fps=149 q=-0.0 size=N/A time=00:08:17.45 bitrate=N/A speed=6.22x    frame=12424 fps=154 q=-0.0 size=N/A time=00:08:38.18 bitrate=N/A speed=6.44x    frame=12856 fps=159 q=-0.0 size=N/A time=00:08:56.20 bitrate=N/A speed=6.62x    frame=13388 fps=164 q=-0.0 size=N/A time=00:09:18.39 bitrate=N/A speed=6.85x    frame=13876 fps=169 q=-0.0 size=N/A time=00:09:38.74 bitrate=N/A speed=7.06x    frame=14370 fps=174 q=-0.0 size=N/A time=00:09:59.34 bitrate=N/A speed=7.26x    frame=14921 fps=180 q=-0.0 size=N/A time=00:10:22.33 bitrate=N/A speed=7.49x    frame=15340 fps=184 q=-0.0 size=N/A time=00:10:39.80 bitrate=N/A speed=7.66x    frame=15940 fps=190 q=-0.0 size=N/A time=00:11:04.83 bitrate=N/A speed=7.91x    frame=16440 fps=194 q=-0.0 size=N/A time=00:11:25.68 bitrate=N/A speed= 8.1x    frame=16979 fps=199 q=-0.0 size=N/A time=00:11:48.16 bitrate=N/A speed=8.32x    frame=17477 fps=204 q=-0.0 size=N/A time=00:12:08.93 bitrate=N/A speed=8.51x    frame=17793 fps=207 q=-0.0 size=N/A time=00:12:22.11 bitrate=N/A speed=8.61x    frame=18260 fps=211 q=-0.0 size=N/A time=00:12:41.59 bitrate=N/A speed=8.79x    frame=18791 fps=216 q=-0.0 size=N/A time=00:13:03.74 bitrate=N/A speed=8.99x    frame=19314 fps=220 q=-0.0 size=N/A time=00:13:25.55 bitrate=N/A speed=9.18x    frame=19820 fps=225 q=-0.0 size=N/A time=00:13:46.65 bitrate=N/A speed=9.37x    frame=20285 fps=229 q=-0.0 size=N/A time=00:14:06.05 bitrate=N/A speed=9.53x    frame=20743 fps=232 q=-0.0 size=N/A time=00:14:25.15 bitrate=N/A speed=9.69x    frame=21265 fps=237 q=-0.0 size=N/A time=00:14:46.92 bitrate=N/A speed=9.88x    frame=21783 fps=241 q=-0.0 size=N/A time=00:15:08.53 bitrate=N/A speed=10.1x    frame=22130 fps=244 q=-0.0 size=N/A time=00:15:23.00 bitrate=N/A speed=10.2x    frame=22582 fps=247 q=-0.0 size=N/A time=00:15:41.85 bitrate=N/A speed=10.3x    frame=23002 fps=250 q=-0.0 size=N/A time=00:15:59.37 bitrate=N/A speed=10.4x    frame=23357 fps=253 q=-0.0 size=N/A time=00:16:14.18 bitrate=N/A speed=10.5x    frame=23773 fps=256 q=-0.0 size=N/A time=00:16:31.53 bitrate=N/A speed=10.7x    frame=24202 fps=259 q=-0.0 size=N/A time=00:16:49.42 bitrate=N/A speed=10.8x    frame=24594 fps=262 q=-0.0 size=N/A time=00:17:05.77 bitrate=N/A speed=10.9x    frame=24971 fps=264 q=-0.0 size=N/A time=00:17:21.49 bitrate=N/A speed=  11x    frame=25424 fps=268 q=-0.0 size=N/A time=00:17:40.39 bitrate=N/A speed=11.2x    frame=25837 fps=271 q=-0.0 size=N/A time=00:17:57.61 bitrate=N/A speed=11.3x    frame=26171 fps=273 q=-0.0 size=N/A time=00:18:11.54 bitrate=N/A speed=11.4x    frame=26681 fps=277 q=-0.0 size=N/A time=00:18:32.82 bitrate=N/A speed=11.5x    frame=27165 fps=280 q=-0.0 size=N/A time=00:18:53.00 bitrate=N/A speed=11.7x    frame=27600 fps=283 q=-0.0 size=N/A time=00:19:11.15 bitrate=N/A speed=11.8x    frame=28028 fps=286 q=-0.0 size=N/A time=00:19:29.00 bitrate=N/A speed=11.9x    frame=28488 fps=289 q=-0.0 size=N/A time=00:19:48.18 bitrate=N/A speed=12.1x    frame=28818 fps=291 q=-0.0 size=N/A time=00:20:01.95 bitrate=N/A speed=12.1x    frame=29231 fps=294 q=-0.0 size=N/A time=00:20:19.17 bitrate=N/A speed=12.2x    frame=29706 fps=297 q=-0.0 size=N/A time=00:20:38.98 bitrate=N/A speed=12.4x    frame=30076 fps=299 q=-0.0 size=N/A time=00:20:54.41 bitrate=N/A speed=12.5x    frame=30489 fps=301 q=-0.0 size=N/A time=00:21:11.64 bitrate=N/A speed=12.6x    frame=30907 fps=304 q=-0.0 size=N/A time=00:21:29.07 bitrate=N/A speed=12.7x    frame=31327 fps=307 q=-0.0 size=N/A time=00:21:46.59 bitrate=N/A speed=12.8x    frame=31738 fps=309 q=-0.0 size=N/A time=00:22:03.73 bitrate=N/A speed=12.9x    frame=32142 fps=312 q=-0.0 size=N/A time=00:22:20.58 bitrate=N/A speed=  13x    frame=32593 fps=314 q=-0.0 size=N/A time=00:22:39.39 bitrate=N/A speed=13.1x    frame=32961 fps=316 q=-0.0 size=N/A time=00:22:54.74 bitrate=N/A speed=13.2x    frame=33376 fps=319 q=-0.0 size=N/A time=00:23:12.05 bitrate=N/A speed=13.3x    frame=33802 fps=321 q=-0.0 size=N/A time=00:23:29.82 bitrate=N/A speed=13.4x    frame=34197 fps=323 q=-0.0 size=N/A time=00:23:46.29 bitrate=N/A speed=13.5x    frame=34685 fps=326 q=-0.0 size=N/A time=00:24:06.65 bitrate=N/A speed=13.6x    [Parsed_psnr_10 @ 000001b05c8e7380] PSNR y:47.040651 u:50.474023 v:50.431225 average:47.909871 min:37.270411 max:65.654712
[out#0/null @ 000001b05c8b2680] video:15143KiB audio:275608KiB subtitle:0KiB other streams:0KiB global headers:0KiB muxing overhead: unknown
frame=35243 fps=330 q=-0.0 Lsize=N/A time=00:24:29.90 bitrate=N/A speed=13.8x    
